STARTFONT 2.1
FONT -MIT-FG30 KST-Medium-R-Normal--39-14-200-200-P-19-ISO8859-1
SIZE 14 200 200
FONTBOUNDINGBOX 19 39 -8 -8
STARTPROPERTIES 17
ADD_STYLE_NAME ""
AVERAGE_WIDTH 19
CHARSET_ENCODING "1"
CHARSET_REGISTRY "ISO8859"
DEFAULT_CHAR 0
FAMILY "FG30 KST"
FONT_ASCENT 31
FONT_DESCENT 8
FOUNDRY "MIT"
PIXEL_SIZE 39
POINT_SIZE 14
RESOLUTION_X 200
RESOLUTION_Y 200
SETWIDTH_NAME "Normal"
SLANT "R"
SPACING "P"
WEIGHT_NAME "Medium"
ENDPROPERTIES
CHARS 127
STARTCHAR char1
ENCODING 1
SWIDTH 1349 0
DWIDTH 19 0
BBX 14 39 1 -8
BITMAP
0300
0300
0300
0300
0300
0300
0300
0300
0300
0300
0300
0300
0300
C30C
E31C
E31C
7338
7338
3B70
1FE0
1FE0
0FC0
0780
0300
0000
0000
0000
0000
0000
0000
0000
0000
0000
0000
0000
0000
0000
0000
0000
ENDCHAR
STARTCHAR char2
ENCODING 2
SWIDTH 1349 0
DWIDTH 19 0
BBX 16 39 0 -8
BITMAP
0000
0000
0000
0000
0000
0000
0000
0000
0007
1F06
3F8E
7FCC
407C
C078
C078
C038
C038
C038
C038
C078
407C
60CC
3F8F
1F01
0000
0000
0000
0000
0000
0000
0000
0000
0000
0000
0000
0000
0000
0000
0000
ENDCHAR
STARTCHAR char3
ENCODING 3
SWIDTH 1349 0
DWIDTH 19 0
BBX 17 39 0 -8
BITMAP
003C00
00FC00
01FE00
03FF00
070700
0E0700
0C0700
180600
180E00
300C00
301800
303000
707000
703E00
F00E00
F00780
F00780
F00780
F00780
F00780
FC0700
FFFE00
FFFC00
E7F800
E00000
E00000
E00000
E00000
E00000
E00000
000000
000000
000000
000000
000000
000000
000000
000000
000000
ENDCHAR
STARTCHAR char4
ENCODING 4
SWIDTH 1349 0
DWIDTH 19 0
BBX 17 39 0 -8
BITMAP
000000
000000
000000
000000
000000
000000
000000
000000
000000
01C000
03E000
063000
063000
0E3800
0C1800
1C1C00
180C00
380E00
300600
700700
600300
E00380
C00180
C00180
000000
000000
000000
000000
000000
000000
000000
000000
000000
000000
000000
000000
000000
000000
000000
ENDCHAR
STARTCHAR char5
ENCODING 5
SWIDTH 1349 0
DWIDTH 19 0
BBX 16 39 0 -8
BITMAP
0000
0000
0000
0000
0000
0000
0000
0000
0000
0000
0000
0000
FFFF
FFFF
0003
0003
0003
0003
0003
0000
0000
0000
0000
0000
0000
0000
0000
0000
0000
0000
0000
0000
0000
0000
0000
0000
0000
0000
0000
ENDCHAR
STARTCHAR char6
ENCODING 6
SWIDTH 1349 0
DWIDTH 19 0
BBX 11 39 2 -8
BITMAP
0000
0000
0000
0000
0000
0000
0000
0000
0000
07E0
1E00
3800
7000
6000
E000
E000
FF00
E000
E000
6000
7000
3800
1E00
07E0
0000
0000
0000
0000
0000
0000
0000
0000
0000
0000
0000
0000
0000
0000
0000
ENDCHAR
STARTCHAR char7
ENCODING 7
SWIDTH 1349 0
DWIDTH 19 0
BBX 16 39 0 -8
BITMAP
0000
0000
0000
0000
0000
0000
0000
0000
0003
FFFF
FFFF
CE3C
8E38
0E38
0C38
1C38
1C18
1818
181C
300C
300C
300E
3006
3006
0000
0000
0000
0000
0000
0000
0000
0000
0000
0000
0000
0000
0000
0000
0000
ENDCHAR
STARTCHAR char8
ENCODING 8
SWIDTH 1349 0
DWIDTH 19 0
BBX 17 39 0 -8
BITMAP
000000
000000
000000
7E0000
7F0000
070000
038000
018000
01C000
00C000
00E000
00E000
00E000
00F000
01F000
03F000
073800
0F1800
1E1C00
3C0C00
380E00
600600
E00700
E00780
000000
000000
000000
000000
000000
000000
000000
000000
000000
000000
000000
000000
000000
000000
000000
ENDCHAR
STARTCHAR char9
ENCODING 9
SWIDTH 1349 0
DWIDTH 19 0
BBX 16 39 0 -8
BITMAP
0000
0000
0000
0000
0003
E007
F00F
781E
3C3C
1E78
0FF0
03E0
03C0
03C0
03C0
03E0
03E0
03E0
03E0
03E0
01E0
01C0
0000
0000
0000
0000
0000
0000
0000
0000
0000
0000
0000
0000
0000
0000
0000
0000
0000
ENDCHAR
STARTCHAR char10
ENCODING 10
SWIDTH 1349 0
DWIDTH 19 0
BBX 15 39 0 -8
BITMAP
0000
0000
0000
0000
07F0
1FFE
3FFE
300E
3000
3800
3E00
07C0
07F0
1FF8
3FFC
781C
E00C
E00C
E00C
E01C
783C
7FF8
7FF8
0FE0
0000
0000
0000
0000
0000
0000
0000
0000
0000
0000
0000
0000
0000
0000
0000
ENDCHAR
STARTCHAR char11
ENCODING 11
SWIDTH 1349 0
DWIDTH 19 0
BBX 14 39 1 -8
BITMAP
0300
0780
0FC0
1FE0
1FE0
3B70
7338
7338
E31C
E31C
C30C
8304
0300
0300
0300
0300
0300
0300
0300
0300
0300
0300
0300
0300
0000
0000
0000
0000
0000
0000
0000
0000
0000
0000
0000
0000
0000
0000
0000
ENDCHAR
STARTCHAR char12
ENCODING 12
SWIDTH 1349 0
DWIDTH 19 0
BBX 16 39 0 -8
BITMAP
0000
0180
0180
0180
0180
0180
0180
0180
FFFF
FFFF
FFFF
0180
0180
0180
0180
0180
0180
0180
0000
0000
FFFF
FFFF
FFFF
0000
0000
0000
0000
0000
0000
0000
0000
0000
0000
0000
0000
0000
0000
0000
0000
ENDCHAR
STARTCHAR char13
ENCODING 13
SWIDTH 1349 0
DWIDTH 19 0
BBX 17 39 0 -8
BITMAP
000000
000000
000000
000000
000000
03E000
0FF800
1DDC00
39CE00
61C300
61C300
C1C180
FFFF80
FFFF80
FFFF80
C1C180
61C300
61C300
39CE00
1DDC00
0FF800
03E000
000000
000000
000000
000000
000000
000000
000000
000000
000000
000000
000000
000000
000000
000000
000000
000000
000000
ENDCHAR
STARTCHAR char14
ENCODING 14
SWIDTH 1349 0
DWIDTH 19 0
BBX 17 39 0 -8
BITMAP
000000
000000
000000
000000
000000
000000
000000
000000
000000
000000
000000
3C1E00
7E3F00
E3E180
E1C180
E1C180
E1C180
E1C180
E3E180
7E3F00
3C1E00
000000
000000
000000
000000
000000
000000
000000
000000
000000
000000
000000
000000
000000
000000
000000
000000
000000
000000
ENDCHAR
STARTCHAR char15
ENCODING 15
SWIDTH 1349 0
DWIDTH 19 0
BBX 14 39 1 -8
BITMAP
0780
1FE0
1FF0
1C1C
000C
000C
000C
000C
000C
000C
000C
1F8C
3FFC
7FFC
E01C
E01C
E01C
E01C
E01C
E018
6070
7FE0
7FC0
0F80
0000
0000
0000
0000
0000
0000
0000
0000
0000
0000
0000
0000
0000
0000
0000
ENDCHAR
STARTCHAR char16
ENCODING 16
SWIDTH 1349 0
DWIDTH 19 0
BBX 16 39 0 -8
BITMAP
0000
0000
0000
0000
0000
0000
0000
0000
03FF
0FFF
1FFF
7800
7000
E000
C000
C000
C000
C000
E000
F000
7800
3FFF
0FFF
03FF
0000
0000
0000
0000
0000
0000
0000
0000
0000
0000
0000
0000
0000
0000
0000
ENDCHAR
STARTCHAR char17
ENCODING 17
SWIDTH 1349 0
DWIDTH 19 0
BBX 17 39 0 -8
BITMAP
000000
000000
000000
000000
000000
000000
000000
000000
FFE000
FFF000
FFFC00
001E00
000F00
000780
000380
000380
000380
000380
000780
000F00
001E00
FFFC00
FFF800
FFE000
000000
000000
000000
000000
000000
000000
000000
000000
000000
000000
000000
000000
000000
000000
000000
ENDCHAR
STARTCHAR char18
ENCODING 18
SWIDTH 1349 0
DWIDTH 19 0
BBX 14 39 0 -8
BITMAP
0000
0000
0000
0000
0780
1FE0
3870
F03C
E01C
E01C
E01C
E01C
E01C
E01C
E01C
E01C
E01C
E01C
E01C
E01C
E01C
E01C
E01C
E01C
0000
0000
0000
0000
0000
0000
0000
0000
0000
0000
0000
0000
0000
0000
0000
ENDCHAR
STARTCHAR char19
ENCODING 19
SWIDTH 1349 0
DWIDTH 19 0
BBX 14 39 0 -8
BITMAP
0000
0000
0000
0000
E01C
E01C
E01C
E01C
E01C
E01C
E01C
E01C
E01C
E01C
E01C
E01C
E01C
E01C
E01C
E01C
F03C
3870
1FE0
0780
0000
0000
0000
0000
0000
0000
0000
0000
0000
0000
0000
0000
0000
0000
0000
ENDCHAR
STARTCHAR char20
ENCODING 20
SWIDTH 1349 0
DWIDTH 19 0
BBX 16 39 0 -8
BITMAP
C003
C003
E007
6006
6006
7006
300C
300C
3FFC
1FF8
1FF8
1C38
1C38
0E70
0E70
0E70
0660
07E0
03C0
03C0
03C0
0180
0180
0180
0000
0000
0000
0000
0000
0000
0000
0000
0000
0000
0000
0000
0000
0000
0000
ENDCHAR
STARTCHAR char21
ENCODING 21
SWIDTH 1349 0
DWIDTH 19 0
BBX 17 39 0 -8
BITMAP
FFFF80
FFFF00
000700
000700
000700
000700
000700
000700
000700
000700
000700
03FF00
03FF00
000700
000700
000700
000700
000700
000700
000700
000700
000700
FFFF00
FFFF80
000000
000000
000000
000000
000000
000000
000000
000000
000000
000000
000000
000000
000000
000000
000000
ENDCHAR
STARTCHAR char22
ENCODING 22
SWIDTH 1349 0
DWIDTH 19 0
BBX 17 39 0 -8
BITMAP
000000
000000
000000
000000
000000
000000
000000
000000
000000
03E000
0FF800
180C00
3C1E00
663100
67F100
E3E180
E1C180
E3E180
67F100
7E3F00
3C1E00
180C00
0FF800
03E000
000000
000000
000000
000000
000000
000000
000000
000000
000000
000000
000000
000000
000000
000000
000000
ENDCHAR
STARTCHAR char23
ENCODING 23
SWIDTH 1349 0
DWIDTH 19 0
BBX 17 39 0 -8
BITMAP
000000
000000
000000
000000
000000
000000
000000
000000
000000
000000
0C1800
1C1C00
180E00
300600
7FFF00
FFFF80
7FFF00
300600
180E00
1C1C00
0C1800
000000
000000
000000
000000
000000
000000
000000
000000
000000
000000
000000
000000
000000
000000
000000
000000
000000
000000
ENDCHAR
STARTCHAR char24
ENCODING 24
SWIDTH 1349 0
DWIDTH 19 0
BBX 16 39 0 -8
BITMAP
0000
0000
0000
0000
0000
0000
0000
0000
0000
0000
0C00
1800
3000
6000
FFFF
FFFF
FFFF
6000
3000
1800
0C00
0000
0000
0000
0000
0000
0000
0000
0000
0000
0000
0000
0000
0000
0000
0000
0000
0000
0000
ENDCHAR
STARTCHAR char25
ENCODING 25
SWIDTH 1349 0
DWIDTH 19 0
BBX 17 39 0 -8
BITMAP
000000
000000
000000
000000
000000
000000
000000
000000
000000
000000
003800
001C00
000E00
000700
FFFF80
FFFF80
FFFF80
000700
000E00
001C00
003800
000000
000000
000000
000000
000000
000000
000000
000000
000000
000000
000000
000000
000000
000000
000000
000000
000000
000000
ENDCHAR
STARTCHAR char26
ENCODING 26
SWIDTH 1349 0
DWIDTH 19 0
BBX 14 39 1 -8
BITMAP
0000
0000
0000
0000
0000
0000
0000
0000
0000
001C
0038
0070
FFFC
FFFC
01C0
0380
0380
FFFC
FFFC
3800
7000
E000
0000
0000
0000
0000
0000
0000
0000
0000
0000
0000
0000
0000
0000
0000
0000
0000
0000
ENDCHAR
STARTCHAR char27
ENCODING 27
SWIDTH 1349 0
DWIDTH 19 0
BBX 14 39 0 -8
BITMAP
0000
0000
0000
0300
0300
0780
0780
0FC0
1FE0
3CF0
7878
F03C
F03C
F03C
7878
3CF0
1FE0
0FC0
0780
0780
0300
0300
0000
0000
0000
0000
0000
0000
0000
0000
0000
0000
0000
0000
0000
0000
0000
0000
0000
ENDCHAR
STARTCHAR char28
ENCODING 28
SWIDTH 1349 0
DWIDTH 19 0
BBX 14 39 1 -8
BITMAP
0000
0000
0000
0000
0000
000C
003C
00F0
03E0
0F80
3E00
F800
F800
3E00
1F00
07C0
01F0
007C
000C
0000
0000
0000
FFFC
FFFC
0000
0000
0000
0000
0000
0000
0000
0000
0000
0000
0000
0000
0000
0000
0000
ENDCHAR
STARTCHAR char29
ENCODING 29
SWIDTH 1349 0
DWIDTH 19 0
BBX 14 39 1 -8
BITMAP
0000
0000
0000
0000
0000
C000
F000
3C00
1F00
07C0
01F0
007C
007C
01F0
03E0
0F80
3E00
F800
C000
0000
0000
0000
FFFC
FFFC
0000
0000
0000
0000
0000
0000
0000
0000
0000
0000
0000
0000
0000
0000
0000
ENDCHAR
STARTCHAR char30
ENCODING 30
SWIDTH 1349 0
DWIDTH 19 0
BBX 14 39 1 -8
BITMAP
0000
0000
0000
0000
0000
0000
0000
0000
0000
0000
FFFC
FFFC
0000
0000
0000
FFFC
FFFC
0000
0000
0000
FFFC
FFFC
0000
0000
0000
0000
0000
0000
0000
0000
0000
0000
0000
0000
0000
0000
0000
0000
0000
ENDCHAR
STARTCHAR char31
ENCODING 31
SWIDTH 1349 0
DWIDTH 19 0
BBX 17 39 0 -8
BITMAP
000000
000000
000000
000000
000000
000000
000000
000000
000000
C00180
C00180
E00380
600300
700700
300600
380E00
180C00
1C1C00
0C1800
0E3800
063000
063000
03E000
01C000
000000
000000
000000
000000
000000
000000
000000
000000
000000
000000
000000
000000
000000
000000
000000
ENDCHAR
STARTCHAR char32
ENCODING 32
SWIDTH 1349 0
DWIDTH 19 0
BBX 1 39 0 -8
BITMAP
00
00
00
00
00
00
00
00
00
00
00
00
00
00
00
00
00
00
00
00
00
00
00
00
00
00
00
00
00
00
00
00
00
00
00
00
00
00
00
ENDCHAR
STARTCHAR char33
ENCODING 33
SWIDTH 1349 0
DWIDTH 19 0
BBX 2 39 7 -8
BITMAP
C0
C0
C0
C0
C0
C0
C0
C0
C0
C0
C0
C0
C0
C0
C0
C0
C0
00
00
00
C0
C0
C0
C0
00
00
00
00
00
00
00
00
00
00
00
00
00
00
00
ENDCHAR
STARTCHAR char34
ENCODING 34
SWIDTH 1349 0
DWIDTH 19 0
BBX 9 39 3 -8
BITMAP
E380
E380
E380
E380
E380
E380
E380
E380
E380
E380
0000
0000
0000
0000
0000
0000
0000
0000
0000
0000
0000
0000
0000
0000
0000
0000
0000
0000
0000
0000
0000
0000
0000
0000
0000
0000
0000
0000
0000
ENDCHAR
STARTCHAR char35
ENCODING 35
SWIDTH 1349 0
DWIDTH 19 0
BBX 16 39 0 -8
BITMAP
0303
0303
0303
0703
0E07
0E07
7FFF
7FFF
1C0C
1C0C
1C0C
1C0C
3038
3038
3038
3038
FFFE
FFFE
E070
E070
C0E0
C0C0
C0C0
C0C0
0000
0000
0000
0000
0000
0000
0000
0000
0000
0000
0000
0000
0000
0000
0000
ENDCHAR
STARTCHAR char36
ENCODING 36
SWIDTH 1349 0
DWIDTH 19 0
BBX 14 39 1 -8
BITMAP
0CC0
0CC0
1FE0
3FF0
7CF8
ECFC
ECCC
ECC0
ECC0
FCC0
7CC0
3FC0
1FF0
0CF8
0CFC
0CDC
0CDC
CCDC
ECDC
7CF8
3FF0
1FE0
0CC0
0CC0
0000
0000
0000
0000
0000
0000
0000
0000
0000
0000
0000
0000
0000
0000
0000
ENDCHAR
STARTCHAR char37
ENCODING 37
SWIDTH 1349 0
DWIDTH 19 0
BBX 17 39 0 -8
BITMAP
000700
000700
3E0600
7F0E00
E30C00
E31C00
E31800
7F3000
3E3000
007000
006000
00E000
00C000
01C000
018000
038000
031E00
073F00
066180
0C6180
0C6180
186100
183E00
181C00
000000
000000
000000
000000
000000
000000
000000
000000
000000
000000
000000
000000
000000
000000
000000
ENDCHAR
STARTCHAR char38
ENCODING 38
SWIDTH 1349 0
DWIDTH 19 0
BBX 16 39 0 -8
BITMAP
01E0
0FF0
0E38
0C1C
1C1C
1C1C
1C38
0E78
07C0
07C0
1F80
3F80
73C0
E1E0
E0E3
E0F3
E07B
E07B
E03E
F03E
783F
7FFF
3FE3
0FC0
0000
0000
0000
0000
0000
0000
0000
0000
0000
0000
0000
0000
0000
0000
0000
ENDCHAR
STARTCHAR char39
ENCODING 39
SWIDTH 1349 0
DWIDTH 19 0
BBX 6 39 3 -8
BITMAP
78
FC
FC
7C
3C
3C
38
30
20
00
00
00
00
00
00
00
00
00
00
00
00
00
00
00
00
00
00
00
00
00
00
00
00
00
00
00
00
00
00
ENDCHAR
STARTCHAR char40
ENCODING 40
SWIDTH 1349 0
DWIDTH 19 0
BBX 7 39 7 -8
BITMAP
0E
1C
38
30
70
70
70
70
F0
F0
F0
F0
F0
F0
F0
F0
70
70
70
70
30
38
1C
0E
00
00
00
00
00
00
00
00
00
00
00
00
00
00
00
ENDCHAR
STARTCHAR char41
ENCODING 41
SWIDTH 1349 0
DWIDTH 19 0
BBX 7 39 2 -8
BITMAP
E0
70
38
18
1C
1C
1C
1C
1E
1E
1E
1E
1E
1E
1E
1E
1C
1C
1C
1C
18
38
70
E0
00
00
00
00
00
00
00
00
00
00
00
00
00
00
00
ENDCHAR
STARTCHAR char42
ENCODING 42
SWIDTH 1349 0
DWIDTH 19 0
BBX 16 39 0 -8
BITMAP
0000
0000
0000
0000
0000
0000
0180
03C0
C3C3
E187
F18F
F18F
3FFC
1FF8
0FF0
0FF0
1FF8
3FFC
F18F
F18F
E187
C1C3
03C0
0180
0000
0000
0000
0000
0000
0000
0000
0000
0000
0000
0000
0000
0000
0000
0000
ENDCHAR
STARTCHAR char43
ENCODING 43
SWIDTH 1349 0
DWIDTH 19 0
BBX 16 39 0 -8
BITMAP
0000
0000
0000
0000
0000
0000
0000
0180
0180
0180
0180
0180
0180
0180
FFFF
FFFF
FFFF
0180
0180
0180
0180
0180
0180
0180
0000
0000
0000
0000
0000
0000
0000
0000
0000
0000
0000
0000
0000
0000
0000
ENDCHAR
STARTCHAR char44
ENCODING 44
SWIDTH 1349 0
DWIDTH 19 0
BBX 6 39 3 -8
BITMAP
00
00
00
00
00
00
00
00
00
00
00
00
00
00
00
00
00
00
00
00
78
FC
FC
7C
3C
38
30
20
00
00
00
00
00
00
00
00
00
00
00
ENDCHAR
STARTCHAR char45
ENCODING 45
SWIDTH 1349 0
DWIDTH 19 0
BBX 14 39 1 -8
BITMAP
0000
0000
0000
0000
0000
0000
0000
0000
0000
0000
0000
0000
0000
0000
FFFC
FFFC
FFFC
0000
0000
0000
0000
0000
0000
0000
0000
0000
0000
0000
0000
0000
0000
0000
0000
0000
0000
0000
0000
0000
0000
ENDCHAR
STARTCHAR char46
ENCODING 46
SWIDTH 1349 0
DWIDTH 19 0
BBX 6 39 3 -8
BITMAP
00
00
00
00
00
00
00
00
00
00
00
00
00
00
00
00
00
00
78
FC
FC
FC
FC
78
00
00
00
00
00
00
00
00
00
00
00
00
00
00
00
ENDCHAR
STARTCHAR char47
ENCODING 47
SWIDTH 1349 0
DWIDTH 19 0
BBX 15 39 0 -8
BITMAP
001E
001C
001C
0038
0038
0070
0070
00E0
00E0
01C0
01C0
0380
0380
0700
0700
0E00
0E00
1C00
1C00
3800
3800
7000
F000
E000
0000
0000
0000
0000
0000
0000
0000
0000
0000
0000
0000
0000
0000
0000
0000
ENDCHAR
STARTCHAR char48
ENCODING 48
SWIDTH 1349 0
DWIDTH 19 0
BBX 17 39 0 -8
BITMAP
07F000
0FF800
1FFC00
3C1F80
380F80
300F80
300F00
701F00
703F00
707F00
70F700
71E700
73C700
778700
7F0700
7E0700
7C0700
780700
F80600
F80E00
FC1E00
1FFC00
0FF800
07F000
000000
000000
000000
000000
000000
000000
000000
000000
000000
000000
000000
000000
000000
000000
000000
ENDCHAR
STARTCHAR char49
ENCODING 49
SWIDTH 1349 0
DWIDTH 19 0
BBX 12 39 1 -8
BITMAP
1E00
3E00
7E00
EE00
0E00
0E00
0E00
0E00
0E00
0E00
0E00
0E00
0E00
0E00
0E00
0E00
0E00
0E00
0E00
0E00
0E00
0E00
FFF0
FFF0
0000
0000
0000
0000
0000
0000
0000
0000
0000
0000
0000
0000
0000
0000
0000
ENDCHAR
STARTCHAR char50
ENCODING 50
SWIDTH 1349 0
DWIDTH 19 0
BBX 15 39 0 -8
BITMAP
1FF0
7FFC
7FFC
C00E
C006
C006
0006
0006
000E
0018
0030
0060
00C0
0180
0380
0600
0C00
1800
3000
6000
E000
FFFE
FFFE
FFFE
0000
0000
0000
0000
0000
0000
0000
0000
0000
0000
0000
0000
0000
0000
0000
ENDCHAR
STARTCHAR char51
ENCODING 51
SWIDTH 1349 0
DWIDTH 19 0
BBX 16 39 0 -8
BITMAP
0FF0
3FFE
3FFE
6006
E007
E007
0007
0006
000E
000C
0018
03F8
03F8
0018
000C
000E
0006
0007
E007
E007
6006
3FFE
3FFE
0FF0
0000
0000
0000
0000
0000
0000
0000
0000
0000
0000
0000
0000
0000
0000
0000
ENDCHAR
STARTCHAR char52
ENCODING 52
SWIDTH 1349 0
DWIDTH 19 0
BBX 15 39 0 -8
BITMAP
0180
0380
0380
0700
0600
0E00
0C00
1C00
1870
3870
3070
6070
6070
C070
C070
C070
FFFE
FFFE
0070
0070
0070
0070
0070
0070
0000
0000
0000
0000
0000
0000
0000
0000
0000
0000
0000
0000
0000
0000
0000
ENDCHAR
STARTCHAR char53
ENCODING 53
SWIDTH 1349 0
DWIDTH 19 0
BBX 16 39 0 -8
BITMAP
FFFE
FFFE
FFFE
E000
E000
E000
E000
E000
E000
E000
E000
FFF0
FFFE
000E
0006
0007
0007
0007
E007
E007
6006
3FFE
3FFE
0FF0
0000
0000
0000
0000
0000
0000
0000
0000
0000
0000
0000
0000
0000
0000
0000
ENDCHAR
STARTCHAR char54
ENCODING 54
SWIDTH 1349 0
DWIDTH 19 0
BBX 15 39 0 -8
BITMAP
1FE0
7FFC
7FFC
E00C
C006
C006
C000
C000
C000
C000
C000
C780
DFE0
FFFC
F01C
E00C
C00E
C00E
C00E
C00E
E00C
7FFC
7FFC
1FE0
0000
0000
0000
0000
0000
0000
0000
0000
0000
0000
0000
0000
0000
0000
0000
ENDCHAR
STARTCHAR char55
ENCODING 55
SWIDTH 1349 0
DWIDTH 19 0
BBX 15 39 0 -8
BITMAP
FFFE
FFFE
000E
000E
000C
000C
0018
0038
0030
0070
0060
00E0
00C0
01C0
0180
0380
0300
0700
0600
0E00
0C00
1C00
1C00
1C00
0000
0000
0000
0000
0000
0000
0000
0000
0000
0000
0000
0000
0000
0000
0000
ENDCHAR
STARTCHAR char56
ENCODING 56
SWIDTH 1349 0
DWIDTH 19 0
BBX 14 39 0 -8
BITMAP
0FC0
3FF0
3FF0
7018
6018
6018
6018
3030
3870
3FF0
0FC0
0780
1FE0
FFFC
F03C
C00C
C00C
C00C
C00C
C00C
C00C
FFFC
FFFC
1FE0
0000
0000
0000
0000
0000
0000
0000
0000
0000
0000
0000
0000
0000
0000
0000
ENDCHAR
STARTCHAR char57
ENCODING 57
SWIDTH 1349 0
DWIDTH 19 0
BBX 16 39 0 -8
BITMAP
0FF0
3FFE
3FFE
6006
6007
6007
6007
6007
6007
381F
3FFF
0FF7
03C7
0007
0007
0007
0007
0007
E007
E007
6006
3FFE
3FFE
0FF0
0000
0000
0000
0000
0000
0000
0000
0000
0000
0000
0000
0000
0000
0000
0000
ENDCHAR
STARTCHAR char58
ENCODING 58
SWIDTH 1349 0
DWIDTH 19 0
BBX 6 39 3 -8
BITMAP
00
00
00
00
00
00
00
00
00
78
FC
FC
FC
78
00
00
00
00
00
78
FC
FC
FC
78
00
00
00
00
00
00
00
00
00
00
00
00
00
00
00
ENDCHAR
STARTCHAR char59
ENCODING 59
SWIDTH 1349 0
DWIDTH 19 0
BBX 6 39 3 -8
BITMAP
00
00
00
00
00
00
00
00
00
00
78
FC
FC
FC
78
00
00
00
00
78
FC
FC
7C
3C
3C
38
30
20
00
00
00
00
00
00
00
00
00
00
00
ENDCHAR
STARTCHAR char60
ENCODING 60
SWIDTH 1349 0
DWIDTH 19 0
BBX 14 39 1 -8
BITMAP
0000
0000
0000
0000
0000
0000
0000
0000
000C
001C
007C
01F0
0780
3E00
F800
F800
F800
3E00
0780
01F0
007C
001C
000C
0000
0000
0000
0000
0000
0000
0000
0000
0000
0000
0000
0000
0000
0000
0000
0000
ENDCHAR
STARTCHAR char61
ENCODING 61
SWIDTH 1349 0
DWIDTH 19 0
BBX 14 39 1 -8
BITMAP
0000
0000
0000
0000
0000
0000
0000
0000
0000
0000
0000
0000
FFFC
FFFC
0000
0000
0000
FFFC
FFFC
0000
0000
0000
0000
0000
0000
0000
0000
0000
0000
0000
0000
0000
0000
0000
0000
0000
0000
0000
0000
ENDCHAR
STARTCHAR char62
ENCODING 62
SWIDTH 1349 0
DWIDTH 19 0
BBX 14 39 1 -8
BITMAP
0000
0000
0000
0000
0000
0000
0000
0000
C000
E000
F800
3E00
0780
01F0
007C
007C
007C
01F0
0780
3E00
F800
E000
C000
0000
0000
0000
0000
0000
0000
0000
0000
0000
0000
0000
0000
0000
0000
0000
0000
ENDCHAR
STARTCHAR char63
ENCODING 63
SWIDTH 1349 0
DWIDTH 19 0
BBX 15 39 0 -8
BITMAP
0FE0
1FF0
3FF8
781C
F00E
E00E
000E
000E
000E
001C
0038
0070
00E0
01C0
0780
0700
0700
0700
0000
0000
0780
0780
0780
0780
0000
0000
0000
0000
0000
0000
0000
0000
0000
0000
0000
0000
0000
0000
0000
ENDCHAR
STARTCHAR char64
ENCODING 64
SWIDTH 1349 0
DWIDTH 19 0
BBX 17 39 0 -8
BITMAP
000000
000000
000000
000000
000000
000000
000000
000000
07F800
3FFE00
700F00
E00780
E00380
E3E380
E7FB80
E61B80
E61B80
E7FF00
E3FE00
E00000
F00000
780780
3FFF00
0FFC00
000000
000000
000000
000000
000000
000000
000000
000000
000000
000000
000000
000000
000000
000000
000000
ENDCHAR
STARTCHAR char65
ENCODING 65
SWIDTH 1349 0
DWIDTH 19 0
BBX 15 39 0 -8
BITMAP
0100
0380
0380
07C0
07C0
0EE0
0EE0
0C60
1C70
1C70
1830
3818
3818
3818
7FFC
7FFC
7FFC
600C
600C
E00E
C006
C006
C006
C006
0000
0000
0000
0000
0000
0000
0000
0000
0000
0000
0000
0000
0000
0000
0000
ENDCHAR
STARTCHAR char66
ENCODING 66
SWIDTH 1349 0
DWIDTH 19 0
BBX 16 39 0 -8
BITMAP
FFE0
FFFC
E01C
E00C
E00C
E00C
E00C
E00C
E00C
E00C
E01C
FFFC
FFFC
E00E
E006
E007
E007
E007
E007
E007
E006
E00E
FFFE
FFF0
0000
0000
0000
0000
0000
0000
0000
0000
0000
0000
0000
0000
0000
0000
0000
ENDCHAR
STARTCHAR char67
ENCODING 67
SWIDTH 1349 0
DWIDTH 19 0
BBX 15 39 0 -8
BITMAP
1FE0
7FFC
7FFC
E00C
C006
C006
C000
C000
C000
C000
C000
C000
C000
C000
C000
C000
C000
C000
C006
C006
E00C
7FFC
7FFC
1FE0
0000
0000
0000
0000
0000
0000
0000
0000
0000
0000
0000
0000
0000
0000
0000
ENDCHAR
STARTCHAR char68
ENCODING 68
SWIDTH 1349 0
DWIDTH 19 0
BBX 16 39 0 -8
BITMAP
FFF0
FFFE
E00E
E006
E007
E007
E007
E007
E007
E007
E007
E007
E007
E007
E007
E007
E007
E007
E007
E007
E006
E00E
FFFE
FFF0
0000
0000
0000
0000
0000
0000
0000
0000
0000
0000
0000
0000
0000
0000
0000
ENDCHAR
STARTCHAR char69
ENCODING 69
SWIDTH 1349 0
DWIDTH 19 0
BBX 15 39 0 -8
BITMAP
FFFE
FFFE
C000
C000
C000
C000
C000
C000
C000
C000
C000
FFF8
FFF8
C000
C000
C000
C000
C000
C000
C000
C000
C000
FFFE
FFFE
0000
0000
0000
0000
0000
0000
0000
0000
0000
0000
0000
0000
0000
0000
0000
ENDCHAR
STARTCHAR char70
ENCODING 70
SWIDTH 1349 0
DWIDTH 19 0
BBX 15 39 0 -8
BITMAP
FFFE
FFFE
C000
C000
C000
C000
C000
C000
C000
C000
C000
FFF8
FFF8
C000
C000
C000
C000
C000
C000
C000
C000
C000
C000
C000
0000
0000
0000
0000
0000
0000
0000
0000
0000
0000
0000
0000
0000
0000
0000
ENDCHAR
STARTCHAR char71
ENCODING 71
SWIDTH 1349 0
DWIDTH 19 0
BBX 15 39 0 -8
BITMAP
1FE0
7FFC
7FFC
E00C
C006
C006
C000
C000
C000
C000
C000
C000
C000
C07E
C07E
C07E
C006
C006
C006
C006
E00C
7FFC
7FFC
1FE0
0000
0000
0000
0000
0000
0000
0000
0000
0000
0000
0000
0000
0000
0000
0000
ENDCHAR
STARTCHAR char72
ENCODING 72
SWIDTH 1349 0
DWIDTH 19 0
BBX 15 39 0 -8
BITMAP
C006
C006
C006
C006
C006
C006
C006
C006
C006
C006
C006
FFFE
FFFE
C006
C006
C006
C006
C006
C006
C006
C006
C006
C006
C006
0000
0000
0000
0000
0000
0000
0000
0000
0000
0000
0000
0000
0000
0000
0000
ENDCHAR
STARTCHAR char73
ENCODING 73
SWIDTH 1349 0
DWIDTH 19 0
BBX 8 39 3 -8
BITMAP
FF
FF
18
18
18
18
18
18
18
18
18
18
18
18
18
18
18
18
18
18
18
18
FF
FF
00
00
00
00
00
00
00
00
00
00
00
00
00
00
00
ENDCHAR
STARTCHAR char74
ENCODING 74
SWIDTH 1349 0
DWIDTH 19 0
BBX 15 39 0 -8
BITMAP
0006
0006
0006
0006
0006
0006
0006
0006
0006
0006
0006
0006
0006
0006
0006
0006
0006
0006
C006
C006
C006
7FFC
7FFC
1FF0
0000
0000
0000
0000
0000
0000
0000
0000
0000
0000
0000
0000
0000
0000
0000
ENDCHAR
STARTCHAR char75
ENCODING 75
SWIDTH 1349 0
DWIDTH 19 0
BBX 15 39 0 -8
BITMAP
C006
C00E
C01E
C03C
C078
C0F0
C1E0
C3C0
C780
CF00
FE00
FC00
F800
F800
FC00
CE00
C700
C380
C1C0
C0E0
C070
C03C
C01C
C00C
0000
0000
0000
0000
0000
0000
0000
0000
0000
0000
0000
0000
0000
0000
0000
ENDCHAR
STARTCHAR char76
ENCODING 76
SWIDTH 1349 0
DWIDTH 19 0
BBX 15 39 0 -8
BITMAP
C000
C000
C000
C000
C000
C000
C000
C000
C000
C000
C000
C000
C000
C000
C000
C000
C000
C000
C000
C000
C000
C000
FFFE
FFFE
0000
0000
0000
0000
0000
0000
0000
0000
0000
0000
0000
0000
0000
0000
0000
ENDCHAR
STARTCHAR char77
ENCODING 77
SWIDTH 1349 0
DWIDTH 19 0
BBX 15 39 0 -8
BITMAP
C006
E00E
F01E
F83E
FC7E
DEF6
CEE6
C7C6
C386
C106
C006
C006
C006
C006
C006
C006
C006
C006
C006
C006
C006
C006
C006
C006
0000
0000
0000
0000
0000
0000
0000
0000
0000
0000
0000
0000
0000
0000
0000
ENDCHAR
STARTCHAR char78
ENCODING 78
SWIDTH 1349 0
DWIDTH 19 0
BBX 15 39 0 -8
BITMAP
E006
E006
F006
F006
F806
D806
DC06
CE06
C606
C606
C306
C306
C186
C186
C0C6
C0C6
C0E6
C066
C076
C03E
C01E
C01E
C00E
C00E
0000
0000
0000
0000
0000
0000
0000
0000
0000
0000
0000
0000
0000
0000
0000
ENDCHAR
STARTCHAR char79
ENCODING 79
SWIDTH 1349 0
DWIDTH 19 0
BBX 14 39 0 -8
BITMAP
1FE0
FFFC
FFFC
C00C
C00C
C00C
C00C
C00C
C00C
C00C
C00C
C00C
C00C
C00C
C00C
C00C
C00C
C00C
C00C
C00C
C00C
FFFC
FFFC
1FE0
0000
0000
0000
0000
0000
0000
0000
0000
0000
0000
0000
0000
0000
0000
0000
ENDCHAR
STARTCHAR char80
ENCODING 80
SWIDTH 1349 0
DWIDTH 19 0
BBX 16 39 0 -8
BITMAP
FFF0
FFFE
E00E
E006
E007
E007
E007
E007
E007
E006
E00E
FFFE
FFF0
E000
E000
E000
E000
E000
E000
E000
E000
E000
E000
E000
0000
0000
0000
0000
0000
0000
0000
0000
0000
0000
0000
0000
0000
0000
0000
ENDCHAR
STARTCHAR char81
ENCODING 81
SWIDTH 1349 0
DWIDTH 19 0
BBX 16 39 0 -8
BITMAP
1FE0
7FFC
601C
C00C
C00E
C00E
C00E
C00E
C00E
C00E
C00E
C00E
C00E
C00E
C00E
C00E
C00E
C00E
C07E
C07E
603C
7FFE
7FFF
0007
0003
0000
0000
0000
0000
0000
0000
0000
0000
0000
0000
0000
0000
0000
0000
ENDCHAR
STARTCHAR char82
ENCODING 82
SWIDTH 1349 0
DWIDTH 19 0
BBX 15 39 0 -8
BITMAP
FFF0
FFFC
C01C
C00C
C006
C006
C006
C006
C006
C00E
C00C
FFFC
FFF0
C018
C018
C018
C01C
C00C
C00C
C00C
C00C
C00E
C006
C006
0000
0000
0000
0000
0000
0000
0000
0000
0000
0000
0000
0000
0000
0000
0000
ENDCHAR
STARTCHAR char83
ENCODING 83
SWIDTH 1349 0
DWIDTH 19 0
BBX 15 39 0 -8
BITMAP
0FE0
7FFC
7FFC
600E
C006
C006
C000
C000
C000
E000
7000
7FF8
1FFC
001C
000E
0006
0006
0006
C006
C006
E00C
7FFC
7FFC
0FE0
0000
0000
0000
0000
0000
0000
0000
0000
0000
0000
0000
0000
0000
0000
0000
ENDCHAR
STARTCHAR char84
ENCODING 84
SWIDTH 1349 0
DWIDTH 19 0
BBX 14 39 1 -8
BITMAP
FFFC
FFFC
0300
0300
0300
0300
0300
0300
0300
0300
0300
0300
0300
0300
0300
0300
0300
0300
0300
0300
0300
0300
0300
0300
0000
0000
0000
0000
0000
0000
0000
0000
0000
0000
0000
0000
0000
0000
0000
ENDCHAR
STARTCHAR char85
ENCODING 85
SWIDTH 1349 0
DWIDTH 19 0
BBX 15 39 0 -8
BITMAP
C006
C006
C006
C006
C006
C006
C006
C006
C006
C006
C006
C006
C006
C006
C006
C006
C006
C006
C006
C006
C006
7FFC
7FFC
1FF0
0000
0000
0000
0000
0000
0000
0000
0000
0000
0000
0000
0000
0000
0000
0000
ENDCHAR
STARTCHAR char86
ENCODING 86
SWIDTH 1349 0
DWIDTH 19 0
BBX 15 39 0 -8
BITMAP
C006
C006
C006
600C
600C
701C
3018
3018
3838
3838
1830
1C70
0C70
0C60
0EE0
06C0
06C0
07C0
0380
0380
0380
0100
0100
0100
0000
0000
0000
0000
0000
0000
0000
0000
0000
0000
0000
0000
0000
0000
0000
ENDCHAR
STARTCHAR char87
ENCODING 87
SWIDTH 1349 0
DWIDTH 19 0
BBX 15 39 0 -8
BITMAP
C006
C006
C006
C006
C006
C006
C006
C006
C006
C006
C006
C006
C006
C006
C106
C386
C7C6
CFE6
DEF6
FC7E
F83E
F01E
E00E
C006
0000
0000
0000
0000
0000
0000
0000
0000
0000
0000
0000
0000
0000
0000
0000
ENDCHAR
STARTCHAR char88
ENCODING 88
SWIDTH 1349 0
DWIDTH 19 0
BBX 15 39 0 -8
BITMAP
C006
C006
E00E
600C
701C
3018
3838
1830
1C70
0C60
0FE0
0FE0
0FE0
0FE0
0C60
1C70
1830
3838
3018
701C
600C
E00E
C006
C006
0000
0000
0000
0000
0000
0000
0000
0000
0000
0000
0000
0000
0000
0000
0000
ENDCHAR
STARTCHAR char89
ENCODING 89
SWIDTH 1349 0
DWIDTH 19 0
BBX 14 39 1 -8
BITMAP
8004
8004
C00C
C00C
E01C
6018
7038
3030
3870
1860
1FE0
0FC0
0780
0300
0300
0300
0300
0300
0300
0300
0300
0300
0300
0300
0000
0000
0000
0000
0000
0000
0000
0000
0000
0000
0000
0000
0000
0000
0000
ENDCHAR
STARTCHAR char90
ENCODING 90
SWIDTH 1349 0
DWIDTH 19 0
BBX 15 39 0 -8
BITMAP
FFFE
FFFE
000E
000E
000C
0038
0038
0070
0060
00E0
01C0
0180
0300
0700
0E00
0C00
1C00
3800
3800
6000
E000
E000
FFFE
FFFE
0000
0000
0000
0000
0000
0000
0000
0000
0000
0000
0000
0000
0000
0000
0000
ENDCHAR
STARTCHAR char91
ENCODING 91
SWIDTH 1349 0
DWIDTH 19 0
BBX 7 39 8 -8
BITMAP
FE
FE
C0
C0
C0
C0
C0
C0
C0
C0
C0
C0
C0
C0
C0
C0
C0
C0
C0
C0
C0
C0
FE
FE
00
00
00
00
00
00
00
00
00
00
00
00
00
00
00
ENDCHAR
STARTCHAR char92
ENCODING 92
SWIDTH 1349 0
DWIDTH 19 0
BBX 15 39 1 -8
BITMAP
F000
7000
7000
3800
3800
1C00
1C00
0E00
0E00
0700
0700
0380
0380
01C0
01C0
00E0
00E0
0070
0070
0038
0038
001C
001E
000E
0000
0000
0000
0000
0000
0000
0000
0000
0000
0000
0000
0000
0000
0000
0000
ENDCHAR
STARTCHAR char93
ENCODING 93
SWIDTH 1349 0
DWIDTH 19 0
BBX 8 39 0 -8
BITMAP
FF
FF
07
07
07
07
07
07
07
07
07
07
07
07
07
07
07
07
07
07
07
07
FF
FF
00
00
00
00
00
00
00
00
00
00
00
00
00
00
00
ENDCHAR
STARTCHAR char94
ENCODING 94
SWIDTH 1349 0
DWIDTH 19 0
BBX 17 39 0 -8
BITMAP
008000
01C000
03E000
07F000
0E3800
1C1C00
380E00
700700
E00380
000000
000000
000000
000000
000000
000000
000000
000000
000000
000000
000000
000000
000000
000000
000000
000000
000000
000000
000000
000000
000000
000000
000000
000000
000000
000000
000000
000000
000000
000000
ENDCHAR
STARTCHAR char95
ENCODING 95
SWIDTH 1349 0
DWIDTH 19 0
BBX 19 39 0 -8
BITMAP
000000
000000
000000
000000
000000
000000
000000
000000
000000
000000
000000
000000
000000
000000
000000
000000
000000
000000
000000
000000
000000
000000
000000
000000
000000
000000
FFFFE0
FFFFE0
FFFFE0
000000
000000
000000
000000
000000
000000
000000
000000
000000
000000
ENDCHAR
STARTCHAR char96
ENCODING 96
SWIDTH 1349 0
DWIDTH 19 0
BBX 6 39 7 -8
BITMAP
10
30
70
F0
F0
F8
FC
FC
78
00
00
00
00
00
00
00
00
00
00
00
00
00
00
00
00
00
00
00
00
00
00
00
00
00
00
00
00
00
00
ENDCHAR
STARTCHAR char97
ENCODING 97
SWIDTH 1349 0
DWIDTH 19 0
BBX 15 39 1 -8
BITMAP
0000
0000
0000
0000
0000
0000
0000
0000
1FF8
3FFC
700E
700E
000E
003E
00FE
07FE
7F0E
F00E
E00E
E00E
E01E
E03E
7FEE
3FCE
0000
0000
0000
0000
0000
0000
0000
0000
0000
0000
0000
0000
0000
0000
0000
ENDCHAR
STARTCHAR char98
ENCODING 98
SWIDTH 1349 0
DWIDTH 19 0
BBX 15 39 0 -8
BITMAP
0000
0000
0000
0000
E000
E000
E000
E000
E000
E3E0
EFF8
F81C
F00C
E00E
E00E
E00E
E00E
E00E
E00E
F00E
F80C
FFFC
EFF8
E3E0
0000
0000
0000
0000
0000
0000
0000
0000
0000
0000
0000
0000
0000
0000
0000
ENDCHAR
STARTCHAR char99
ENCODING 99
SWIDTH 1349 0
DWIDTH 19 0
BBX 15 39 1 -8
BITMAP
0000
0000
0000
0000
0000
0000
0000
0000
0000
0FF0
3FF8
700E
600E
E000
E000
E000
E000
E000
E000
E00E
600E
700E
3FFC
0FF0
0000
0000
0000
0000
0000
0000
0000
0000
0000
0000
0000
0000
0000
0000
0000
ENDCHAR
STARTCHAR char100
ENCODING 100
SWIDTH 1349 0
DWIDTH 19 0
BBX 15 39 1 -8
BITMAP
0000
0000
000E
000E
000E
000E
000E
000E
000E
3FCE
7FFE
603E
E01E
E00E
E00E
E00E
E00E
E00E
E00E
E01E
603E
7FFE
3FCE
000E
0000
0000
0000
0000
0000
0000
0000
0000
0000
0000
0000
0000
0000
0000
0000
ENDCHAR
STARTCHAR char101
ENCODING 101
SWIDTH 1349 0
DWIDTH 19 0
BBX 15 39 1 -8
BITMAP
0000
0000
0000
0000
0000
0000
0000
0000
0000
0FE0
3FF8
7018
600C
E00E
E00E
FFFE
FFFE
E000
E000
E00E
600E
700E
3FF8
0FF0
0000
0000
0000
0000
0000
0000
0000
0000
0000
0000
0000
0000
0000
0000
0000
ENDCHAR
STARTCHAR char102
ENCODING 102
SWIDTH 1349 0
DWIDTH 19 0
BBX 11 39 3 -8
BITMAP
0000
0000
03E0
07E0
0FE0
0C00
0C00
0C00
0C00
FFE0
FFE0
FFE0
0C00
0C00
0C00
0C00
0C00
0C00
0C00
0C00
0C00
0C00
0C00
0C00
0000
0000
0000
0000
0000
0000
0000
0000
0000
0000
0000
0000
0000
0000
0000
ENDCHAR
STARTCHAR char103
ENCODING 103
SWIDTH 1349 0
DWIDTH 19 0
BBX 15 39 1 -8
BITMAP
0000
0000
0000
0000
0000
0000
0000
0000
000E
1FCE
7FFE
703E
E01E
E00E
E00E
E00E
E00E
E00E
E00E
E01E
603E
7FFE
3FCE
0F0E
000E
000E
701C
7FF8
7FF8
1FE0
0000
0000
0000
0000
0000
0000
0000
0000
0000
ENDCHAR
STARTCHAR char104
ENCODING 104
SWIDTH 1349 0
DWIDTH 19 0
BBX 14 39 1 -8
BITMAP
0000
0000
C000
C000
C000
C000
C000
C000
C000
CFF0
FFF8
F018
E00C
C00C
C00C
C00C
C00C
C00C
C00C
C00C
C00C
C00C
C00C
C00C
0000
0000
0000
0000
0000
0000
0000
0000
0000
0000
0000
0000
0000
0000
0000
ENDCHAR
STARTCHAR char105
ENCODING 105
SWIDTH 1349 0
DWIDTH 19 0
BBX 3 39 6 -8
BITMAP
00
E0
E0
E0
E0
00
00
00
60
60
60
60
60
60
60
60
60
60
60
60
60
60
60
60
00
00
00
00
00
00
00
00
00
00
00
00
00
00
00
ENDCHAR
STARTCHAR char106
ENCODING 106
SWIDTH 1349 0
DWIDTH 19 0
BBX 8 39 4 -8
BITMAP
00
00
0F
0F
0F
0F
00
00
00
07
07
07
07
07
07
07
07
07
07
07
07
07
07
07
07
07
07
7E
FC
F8
00
00
00
00
00
00
00
00
00
ENDCHAR
STARTCHAR char107
ENCODING 107
SWIDTH 1349 0
DWIDTH 19 0
BBX 14 39 1 -8
BITMAP
0000
0000
C000
C000
C000
C000
C000
C000
C000
C0E0
C3C0
C780
CF00
DE00
FE00
FF00
FF80
C3C0
C1E0
C0F0
C078
C03C
C01C
C00C
0000
0000
0000
0000
0000
0000
0000
0000
0000
0000
0000
0000
0000
0000
0000
ENDCHAR
STARTCHAR char108
ENCODING 108
SWIDTH 1349 0
DWIDTH 19 0
BBX 2 39 7 -8
BITMAP
00
C0
C0
C0
C0
C0
C0
C0
C0
C0
C0
C0
C0
C0
C0
C0
C0
C0
C0
C0
C0
C0
C0
C0
00
00
00
00
00
00
00
00
00
00
00
00
00
00
00
ENDCHAR
STARTCHAR char109
ENCODING 109
SWIDTH 1349 0
DWIDTH 19 0
BBX 14 39 1 -8
BITMAP
0000
0000
0000
0000
0000
0000
0000
C000
C000
DE78
FEFC
C30C
C30C
C30C
C30C
C30C
C30C
C30C
C30C
C30C
C30C
C30C
C30C
C30C
0000
0000
0000
0000
0000
0000
0000
0000
0000
0000
0000
0000
0000
0000
0000
ENDCHAR
STARTCHAR char110
ENCODING 110
SWIDTH 1349 0
DWIDTH 19 0
BBX 14 39 1 -8
BITMAP
0000
0000
0000
0000
0000
0000
0000
0000
C000
CFF0
FFFC
F01C
E00C
C00C
C00C
C00C
C00C
C00C
C00C
C00C
C00C
C00C
C00C
C00C
0000
0000
0000
0000
0000
0000
0000
0000
0000
0000
0000
0000
0000
0000
0000
ENDCHAR
STARTCHAR char111
ENCODING 111
SWIDTH 1349 0
DWIDTH 19 0
BBX 14 39 1 -8
BITMAP
0000
0000
0000
0000
0000
0000
0000
0000
0000
1FE0
3FF0
7038
E01C
E01C
E01C
E01C
E01C
E01C
E01C
E01C
E01C
7038
3FF0
1FE0
0000
0000
0000
0000
0000
0000
0000
0000
0000
0000
0000
0000
0000
0000
0000
ENDCHAR
STARTCHAR char112
ENCODING 112
SWIDTH 1349 0
DWIDTH 19 0
BBX 15 39 0 -8
BITMAP
0000
0000
0000
0000
0000
0000
0000
E000
E000
E7F8
FFFC
F00C
E00E
E00E
E00E
E00E
E00E
E00E
E00E
F00E
F80C
FE1C
E7F8
E1E0
E000
E000
E000
E000
E000
E000
0000
0000
0000
0000
0000
0000
0000
0000
0000
ENDCHAR
STARTCHAR char113
ENCODING 113
SWIDTH 1349 0
DWIDTH 19 0
BBX 15 39 1 -8
BITMAP
0000
0000
0000
0000
0000
0000
0000
0000
000E
3FCE
7FFE
603E
E01E
E00E
E00E
E00E
E00E
E00E
E00E
E01E
603E
7FFE
3FCE
000E
000E
000E
000E
000E
000E
000E
0000
0000
0000
0000
0000
0000
0000
0000
0000
ENDCHAR
STARTCHAR char114
ENCODING 114
SWIDTH 1349 0
DWIDTH 19 0
BBX 14 39 0 -8
BITMAP
0000
0000
0000
0000
0000
0000
0000
0000
E000
E7E0
FFF8
FC3C
F01C
E000
E000
E000
E000
E000
E000
E000
E000
E000
E000
E000
0000
0000
0000
0000
0000
0000
0000
0000
0000
0000
0000
0000
0000
0000
0000
ENDCHAR
STARTCHAR char115
ENCODING 115
SWIDTH 1349 0
DWIDTH 19 0
BBX 13 39 2 -8
BITMAP
0000
0000
0000
0000
0000
0000
0000
0000
0000
3FE0
7FF0
C018
C018
C000
C000
FFE0
7FF0
0018
0018
C018
C018
C018
7FF0
3FE0
0000
0000
0000
0000
0000
0000
0000
0000
0000
0000
0000
0000
0000
0000
0000
ENDCHAR
STARTCHAR char116
ENCODING 116
SWIDTH 1349 0
DWIDTH 19 0
BBX 11 39 3 -8
BITMAP
0000
0000
0C00
0C00
0C00
0C00
0C00
0C00
FFE0
FFE0
FFE0
0C00
0C00
0C00
0C00
0C00
0C00
0C00
0C00
0C00
0C00
0FE0
07E0
03E0
0000
0000
0000
0000
0000
0000
0000
0000
0000
0000
0000
0000
0000
0000
0000
ENDCHAR
STARTCHAR char117
ENCODING 117
SWIDTH 1349 0
DWIDTH 19 0
BBX 14 39 1 -8
BITMAP
0000
0000
0000
0000
0000
0000
0000
0000
C00C
C00C
C00C
C00C
C00C
C00C
C00C
C00C
C00C
C00C
C00C
C01C
603C
7FFC
3FCC
000C
0000
0000
0000
0000
0000
0000
0000
0000
0000
0000
0000
0000
0000
0000
0000
ENDCHAR
STARTCHAR char118
ENCODING 118
SWIDTH 1349 0
DWIDTH 19 0
BBX 14 39 1 -8
BITMAP
0000
0000
0000
0000
0000
0000
0000
0000
C00C
C00C
C00C
E01C
7038
7038
3870
3870
1CE0
1CE0
0FE0
0FC0
0780
0780
0300
0300
0000
0000
0000
0000
0000
0000
0000
0000
0000
0000
0000
0000
0000
0000
0000
ENDCHAR
STARTCHAR char119
ENCODING 119
SWIDTH 1349 0
DWIDTH 19 0
BBX 14 39 1 -8
BITMAP
0000
0000
0000
0000
0000
0000
0000
0000
C00C
C00C
C00C
C00C
C00C
C00C
C00C
C00C
C00C
C78C
CFCC
CCCC
F87C
F03C
E01C
C00C
0000
0000
0000
0000
0000
0000
0000
0000
0000
0000
0000
0000
0000
0000
0000
ENDCHAR
STARTCHAR char120
ENCODING 120
SWIDTH 1349 0
DWIDTH 19 0
BBX 14 39 1 -8
BITMAP
0000
0000
0000
0000
0000
0000
0000
0000
0000
8004
C00C
E01C
7038
3870
1FE0
0FC0
0FC0
0FC0
1FE0
3870
7038
E01C
C00C
8004
0000
0000
0000
0000
0000
0000
0000
0000
0000
0000
0000
0000
0000
0000
0000
ENDCHAR
STARTCHAR char121
ENCODING 121
SWIDTH 1349 0
DWIDTH 19 0
BBX 14 39 1 -8
BITMAP
0000
0000
0000
0000
0000
0000
0000
0000
C00C
C00C
C00C
C00C
C00C
C00C
C00C
C00C
C00C
C00C
C00C
C01C
607C
7FFC
7FDC
0F1C
001C
001C
6018
7FF8
7FF0
3FC0
0000
0000
0000
0000
0000
0000
0000
0000
0000
ENDCHAR
STARTCHAR char122
ENCODING 122
SWIDTH 1349 0
DWIDTH 19 0
BBX 14 39 1 -8
BITMAP
0000
0000
0000
0000
0000
0000
0000
0000
FFFC
FFFC
FFFC
0038
0070
00E0
01C0
0380
0700
0E00
1C00
3800
7000
FFFC
FFFC
FFFC
0000
0000
0000
0000
0000
0000
0000
0000
0000
0000
0000
0000
0000
0000
0000
ENDCHAR
STARTCHAR char123
ENCODING 123
SWIDTH 1349 0
DWIDTH 19 0
BBX 7 39 8 -8
BITMAP
0E
18
30
70
70
30
30
30
30
30
70
F0
F0
70
30
30
30
30
30
70
70
30
18
0E
00
00
00
00
00
00
00
00
00
00
00
00
00
00
00
ENDCHAR
STARTCHAR char124
ENCODING 124
SWIDTH 1349 0
DWIDTH 19 0
BBX 2 39 7 -8
BITMAP
C0
C0
C0
C0
C0
C0
C0
C0
C0
C0
C0
C0
C0
C0
C0
C0
C0
C0
C0
C0
C0
C0
C0
C0
C0
C0
C0
C0
C0
C0
00
00
00
00
00
00
00
00
00
ENDCHAR
STARTCHAR char125
ENCODING 125
SWIDTH 1349 0
DWIDTH 19 0
BBX 7 39 1 -8
BITMAP
E0
30
18
1C
1C
18
18
18
18
18
1C
1E
1E
1C
18
18
18
18
18
1C
1C
18
30
E0
00
00
00
00
00
00
00
00
00
00
00
00
00
00
00
ENDCHAR
STARTCHAR char126
ENCODING 126
SWIDTH 1349 0
DWIDTH 19 0
BBX 17 39 0 -8
BITMAP
000000
000000
000000
000000
000000
000000
000000
000000
000000
000000
000000
000000
0E0080
1F0080
3F8180
7FC300
61FF00
C0FE00
C07C00
803800
000000
000000
000000
000000
000000
000000
000000
000000
000000
000000
000000
000000
000000
000000
000000
000000
000000
000000
000000
ENDCHAR
STARTCHAR char127
ENCODING 127
SWIDTH 1349 0
DWIDTH 19 0
BBX 16 39 0 -8
BITMAP
001E
003F
0073
00F3
00F3
00E0
00E0
00C0
01C0
01C0
0180
0180
0180
0180
0180
0380
0380
0300
0300
0300
0300
0300
0700
0700
CE00
CE00
CE00
CE00
7C00
3800
0000
0000
0000
0000
0000
0000
0000
0000
0000
ENDCHAR
ENDFONT
